<?xml version="1.0" encoding="UTF-8"?>
<!DOCTYPE svg PUBLIC "-//W3C//DTD SVG 1.1//EN" "http://www.w3.org/Graphics/SVG/1.1/DTD/svg11.dtd">
<svg xmlns="http://www.w3.org/2000/svg" version="1.1" width="139px" height="49px" style="shape-rendering:geometricPrecision; text-rendering:geometricPrecision; image-rendering:optimizeQuality; fill-rule:evenodd; clip-rule:evenodd" xmlns:xlink="http://www.w3.org/1999/xlink">
<g><path style="opacity:0.951" fill="#7c4d23" d="M 90.5,22.5 C 88.2729,21.5994 87.2729,19.9328 87.5,17.5C 84.5176,17.9629 81.5176,18.2962 78.5,18.5C 78.5,19.5 78.5,20.5 78.5,21.5C 79.552,21.3505 80.552,21.5172 81.5,22C 83.7726,24.9664 85.7726,28.133 87.5,31.5C 89.7328,32.7422 91.8995,34.0755 94,35.5C 94.1667,36.5 94.3333,37.5 94.5,38.5C 94.3601,40.0296 93.6935,41.0296 92.5,41.5C 91.8333,41.1667 91.1667,40.8333 90.5,40.5C 90.1667,39.1667 89.8333,39.1667 89.5,40.5C 86.2696,41.6226 85.2696,43.6226 86.5,46.5C 86.1667,47.1667 85.8333,47.8333 85.5,48.5C 84.1667,48.5 82.8333,48.5 81.5,48.5C 82.3007,46.9582 82.634,45.2915 82.5,43.5C 82.5405,40.1194 82.2071,36.7861 81.5,33.5C 82.3321,31.2752 81.3321,29.9419 78.5,29.5C 78.6882,27.8967 78.1882,26.5634 77,25.5C 74.0035,26.9106 70.8369,27.9106 67.5,28.5C 68.1272,29.4168 68.4606,30.4168 68.5,31.5C 68.1201,33.698 68.7868,35.3646 70.5,36.5C 71.2906,39.115 71.9573,41.7816 72.5,44.5C 72.5,45.8333 72.5,47.1667 72.5,48.5C 71.8333,48.5 71.1667,48.5 70.5,48.5C 70.69,46.0411 69.69,44.3745 67.5,43.5C 66.3077,41.8869 65.3077,40.2202 64.5,38.5C 63.828,37.7326 62.9947,37.0659 62,36.5C 61.7468,33.2104 60.7468,30.2104 59,27.5C 57.8581,29.6787 57.0248,32.0121 56.5,34.5C 57.2427,35.1818 57.9094,35.8485 58.5,36.5C 57.8333,36.5 57.5,36.8333 57.5,37.5C 56.5041,37.4142 55.6708,37.7476 55,38.5C 54.3897,41.8273 53.8897,45.1606 53.5,48.5C 51.8333,48.5 50.1667,48.5 48.5,48.5C 50.013,44.682 50.6796,40.682 50.5,36.5C 52.8418,35.7893 53.1751,34.456 51.5,32.5C 52.4731,30.0521 52.8064,27.3854 52.5,24.5C 50.1432,24.6633 47.8098,24.4966 45.5,24C 41.0896,20.9879 38.0896,16.9879 36.5,12C 35.4232,11.5304 34.4232,11.6971 33.5,12.5C 33.5858,11.5041 33.2524,10.6708 32.5,10C 28.9603,9.67134 27.7936,7.83801 29,4.5C 32.2115,2.9829 35.5449,1.64956 39,0.5C 41.1929,0.851307 43.0262,1.85131 44.5,3.5C 45.679,7.21394 47.5124,10.5473 50,13.5C 53.7231,7.15613 59.2231,2.98946 66.5,1C 71.5443,-0.310501 75.211,1.35617 77.5,6C 79.7885,6.82214 82.1218,7.4888 84.5,8C 86,10.1667 87.8333,12 90,13.5C 90.498,16.4816 90.6646,19.4816 90.5,22.5 Z M 78.5,29.5 C 75.0968,29.8511 71.7635,30.5178 68.5,31.5C 68.4606,30.4168 68.1272,29.4168 67.5,28.5C 70.8369,27.9106 74.0035,26.9106 77,25.5C 78.1882,26.5634 78.6882,27.8967 78.5,29.5 Z M 81.5,33.5 C 82.2071,36.7861 82.5405,40.1194 82.5,43.5C 79.1933,44.0508 75.8599,44.3841 72.5,44.5C 71.9573,41.7816 71.2906,39.115 70.5,36.5C 73.8692,34.6223 77.5359,33.6223 81.5,33.5 Z M 64.5,38.5 C 65.3077,40.2202 66.3077,41.8869 67.5,43.5C 66.391,43.4431 65.391,43.1098 64.5,42.5C 64.5,41.1667 64.5,39.8333 64.5,38.5 Z"/></g>
<g><path style="opacity:0.898" fill="#422816" d="M 33.5,12.5 C 34.4232,11.6971 35.4232,11.5304 36.5,12C 38.0896,16.9879 41.0896,20.9879 45.5,24C 47.8098,24.4966 50.1432,24.6633 52.5,24.5C 52.8064,27.3854 52.4731,30.0521 51.5,32.5C 51.3893,31.8826 51.056,31.3826 50.5,31C 46.8484,30.5014 43.1817,30.3347 39.5,30.5C 39.5,31.5 39.5,32.5 39.5,33.5C 40.5,33.5 41.5,33.5 42.5,33.5C 44.4116,38.3452 46.0783,43.3452 47.5,48.5C 45.8333,48.5 44.1667,48.5 42.5,48.5C 40.5026,43.8378 38.5026,39.1711 36.5,34.5C 36.5,33.5 36.5,32.5 36.5,31.5C 35.5,31.5 34.5,31.5 33.5,31.5C 33.5,33.1667 33.5,34.8333 33.5,36.5C 32.7048,40.4764 32.0381,44.4764 31.5,48.5C 29.5,48.5 27.5,48.5 25.5,48.5C 26.2653,45.9039 26.5987,43.2372 26.5,40.5C 27.1217,39.3734 27.955,38.3734 29,37.5C 29.7796,35.6131 29.6129,33.9464 28.5,32.5C 28.6495,31.448 28.4828,30.448 28,29.5C 26.6124,30.5536 25.1124,30.7203 23.5,30C 18.8101,27.2948 15.8101,23.2948 14.5,18C 12.9751,16.9914 11.3084,16.4914 9.5,16.5C 9.5,14.5 9.5,12.5 9.5,10.5C 14.1191,9.6864 18.7858,9.35307 23.5,9.5C 23.4052,13.0581 24.5718,16.0581 27,18.5C 28.5383,15.6915 30.705,13.6915 33.5,12.5 Z"/></g>
<g><path style="opacity:0.9" fill="#925f35" d="M 125.5,48.5 C 124.5,48.5 123.5,48.5 122.5,48.5C 122.033,45.7026 120.367,44.3692 117.5,44.5C 117.5,45.8333 117.5,47.1667 117.5,48.5C 116.5,48.5 115.5,48.5 114.5,48.5C 114.5,47.8333 114.5,47.1667 114.5,46.5C 115.742,44.6112 115.742,42.6112 114.5,40.5C 114.5,39.8333 114.167,39.5 113.5,39.5C 112.699,37.9582 112.366,36.2915 112.5,34.5C 110.678,34.8308 109.011,35.4975 107.5,36.5C 102.877,37.5433 102.877,39.5433 107.5,42.5C 108.15,44.4352 108.483,46.4352 108.5,48.5C 107.167,48.5 105.833,48.5 104.5,48.5C 103.067,46.4418 102.4,44.1085 102.5,41.5C 101.5,41.5 100.5,41.5 99.5,41.5C 102.29,38.4059 101.623,36.4059 97.5,35.5C 96.5829,38.0048 96.5829,40.3382 97.5,42.5C 96.6201,44.6112 96.6201,46.6112 97.5,48.5C 95.5,48.5 93.5,48.5 91.5,48.5C 91.5,47.5 91.5,46.5 91.5,45.5C 92.2341,44.2921 92.5674,42.9587 92.5,41.5C 93.6935,41.0296 94.3601,40.0296 94.5,38.5C 94.3333,37.5 94.1667,36.5 94,35.5C 91.8995,34.0755 89.7328,32.7422 87.5,31.5C 85.7726,28.133 83.7726,24.9664 81.5,22C 80.552,21.5172 79.552,21.3505 78.5,21.5C 78.5,20.5 78.5,19.5 78.5,18.5C 81.5176,18.2962 84.5176,17.9629 87.5,17.5C 87.2729,19.9328 88.2729,21.5994 90.5,22.5C 90.3691,23.3764 90.7025,24.0431 91.5,24.5C 95.3583,20.3205 100.025,17.3205 105.5,15.5C 110.101,17.5359 114.435,20.0359 118.5,23C 121.663,26.1179 122.33,29.7845 120.5,34C 121.868,36.5666 123.368,39.0666 125,41.5C 125.497,43.8098 125.663,46.1432 125.5,48.5 Z M 113.5,39.5 C 111.181,39.0075 109.181,38.0075 107.5,36.5C 109.011,35.4975 110.678,34.8308 112.5,34.5C 112.366,36.2915 112.699,37.9582 113.5,39.5 Z"/></g>
<g><path style="opacity:0.593" fill="#f17d00" d="M 78.5,29.5 C 81.3321,29.9419 82.3321,31.2752 81.5,33.5C 77.5359,33.6223 73.8692,34.6223 70.5,36.5C 68.7868,35.3646 68.1201,33.698 68.5,31.5C 71.7635,30.5178 75.0968,29.8511 78.5,29.5 Z"/></g>
<g><path style="opacity:0.774" fill="#e17904" d="M 51.5,32.5 C 53.1751,34.456 52.8418,35.7893 50.5,36.5C 47.9212,35.3438 45.2545,34.3438 42.5,33.5C 41.5,33.5 40.5,33.5 39.5,33.5C 39.5,32.5 39.5,31.5 39.5,30.5C 43.1817,30.3347 46.8484,30.5014 50.5,31C 51.056,31.3826 51.3893,31.8826 51.5,32.5 Z"/></g>
<g><path style="opacity:0.859" fill="#de6b02" d="M 36.5,34.5 C 35.2223,34.7822 34.2223,35.4489 33.5,36.5C 33.5,34.8333 33.5,33.1667 33.5,31.5C 34.5,31.5 35.5,31.5 36.5,31.5C 36.5,32.5 36.5,33.5 36.5,34.5 Z"/></g>
<g><path style="opacity:0.742" fill="#4b2c17" d="M 64.5,38.5 C 64.5,39.8333 64.5,41.1667 64.5,42.5C 63.4786,44.5233 63.8119,46.5233 65.5,48.5C 64.1667,48.5 62.8333,48.5 61.5,48.5C 61.5,47.5 61.5,46.5 61.5,45.5C 61.3104,42.145 60.3104,39.145 58.5,36.5C 57.9094,35.8485 57.2427,35.1818 56.5,34.5C 57.0248,32.0121 57.8581,29.6787 59,27.5C 60.7468,30.2104 61.7468,33.2104 62,36.5C 62.9947,37.0659 63.828,37.7326 64.5,38.5 Z"/></g>
<g><path style="opacity:0.724" fill="#ed7e04" d="M 107.5,36.5 C 109.181,38.0075 111.181,39.0075 113.5,39.5C 114.167,39.5 114.5,39.8333 114.5,40.5C 115.742,42.6112 115.742,44.6112 114.5,46.5C 112.004,45.4196 109.67,44.0862 107.5,42.5C 102.877,39.5433 102.877,37.5433 107.5,36.5 Z"/></g>
<g><path style="opacity:0.636" fill="#de790f" d="M 99.5,41.5 C 98.8333,41.8333 98.1667,42.1667 97.5,42.5C 96.5829,40.3382 96.5829,38.0048 97.5,35.5C 101.623,36.4059 102.29,38.4059 99.5,41.5 Z"/></g>
<g><path style="opacity:0.59" fill="#f38100" d="M 28.5,32.5 C 29.6129,33.9464 29.7796,35.6131 29,37.5C 27.955,38.3734 27.1217,39.3734 26.5,40.5C 23.3699,42.7261 20.7032,45.3928 18.5,48.5C 16.1667,48.5 13.8333,48.5 11.5,48.5C 15.8805,41.7858 21.5471,36.4524 28.5,32.5 Z"/></g>
<g><path style="opacity:0.742" fill="#472b17" d="M 57.5,37.5 C 57.5,39.8333 57.5,42.1667 57.5,44.5C 57.1667,45.8333 56.8333,47.1667 56.5,48.5C 55.5,48.5 54.5,48.5 53.5,48.5C 53.8897,45.1606 54.3897,41.8273 55,38.5C 55.6708,37.7476 56.5041,37.4142 57.5,37.5 Z"/></g>
<g><path style="opacity:0.627" fill="#d87204" d="M 58.5,36.5 C 60.3104,39.145 61.3104,42.145 61.5,45.5C 60.1667,45.1667 58.8333,44.8333 57.5,44.5C 57.5,42.1667 57.5,39.8333 57.5,37.5C 57.5,36.8333 57.8333,36.5 58.5,36.5 Z"/></g>
<g><path style="opacity:0.754" fill="#ea8103" d="M 89.5,40.5 C 89.8333,40.5 90.1667,40.5 90.5,40.5C 91.1667,40.8333 91.8333,41.1667 92.5,41.5C 92.5674,42.9587 92.2341,44.2921 91.5,45.5C 89.8828,46.038 88.2161,46.3713 86.5,46.5C 85.2696,43.6226 86.2696,41.6226 89.5,40.5 Z"/></g>
<g><path style="opacity:0.705" fill="#e47703" d="M 64.5,42.5 C 65.391,43.1098 66.391,43.4431 67.5,43.5C 69.69,44.3745 70.69,46.0411 70.5,48.5C 68.8333,48.5 67.1667,48.5 65.5,48.5C 63.8119,46.5233 63.4786,44.5233 64.5,42.5 Z"/></g>
<g><path style="opacity:0.647" fill="#f08001" d="M 82.5,43.5 C 82.634,45.2915 82.3007,46.9582 81.5,48.5C 78.5,48.5 75.5,48.5 72.5,48.5C 72.5,47.1667 72.5,45.8333 72.5,44.5C 75.8599,44.3841 79.1933,44.0508 82.5,43.5 Z"/></g>
<g><path style="opacity:0.597" fill="#e87c07" d="M 122.5,48.5 C 120.833,48.5 119.167,48.5 117.5,48.5C 117.5,47.1667 117.5,45.8333 117.5,44.5C 120.367,44.3692 122.033,45.7026 122.5,48.5 Z"/></g>
</svg>
